<svg width="48" height="48" viewBox="0 0 48 48" fill="none" xmlns="http://www.w3.org/2000/svg">
<path fill-rule="evenodd" clip-rule="evenodd" d="M15 9.5C15 9.062 19.516 6 24 6C28.484 6 33 9.063 33 9.5C33 11.06 32.834 11.984 32.694 12.487C32.601 12.817 32.292 13 31.949 13H16.051C15.708 13 15.399 12.817 15.306 12.487C15.166 11.984 15 11.06 15 9.5ZM22.5 9C22.2348 9 21.9805 9.10536 21.7929 9.29289C21.6054 9.48043 21.5 9.73478 21.5 10C21.5 10.2652 21.6054 10.5196 21.7929 10.7071C21.9805 10.8946 22.2348 11 22.5 11H25.5C25.7653 11 26.0196 10.8946 26.2071 10.7071C26.3947 10.5196 26.5 10.2652 26.5 10C26.5 9.73478 26.3947 9.48043 26.2071 9.29289C26.0196 9.10536 25.7653 9 25.5 9H22.5ZM16.038 19.218C12.708 18.188 13.548 16.348 14.818 15H33.46C34.476 16.298 35.021 18.049 31.95 19.097C32.0756 20.211 31.9655 21.339 31.6271 22.4078C31.2887 23.4765 30.7294 24.4622 29.9855 25.301C29.2417 26.1397 28.3298 26.8127 27.3091 27.2764C26.2885 27.7401 25.1817 27.984 24.0607 27.9925C22.9396 28.0009 21.8293 27.7737 20.8018 27.3255C19.7742 26.8772 18.8523 26.218 18.0959 25.3906C17.3395 24.5632 16.7654 23.5861 16.4109 22.5225C16.0564 21.459 15.9293 20.3328 16.038 19.217V19.218ZM23.728 20C26.37 20 28.418 19.86 29.988 19.616C30.0396 20.4313 29.9242 21.2486 29.6488 22.0177C29.3734 22.7868 28.9438 23.4916 28.3864 24.0889C27.829 24.6861 27.1555 25.1632 26.4072 25.491C25.6589 25.8187 24.8515 25.9902 24.0346 25.9949C23.2176 25.9996 22.4084 25.8375 21.6563 25.5184C20.9043 25.1992 20.2253 24.7299 19.6611 24.1391C19.0968 23.5483 18.6592 22.8485 18.3749 22.0826C18.0907 21.3167 17.9658 20.5009 18.008 19.685C19.471 19.887 21.346 20 23.728 20ZM32.417 34.6C31.5125 33.1888 30.2675 32.0278 28.7966 31.224C27.3257 30.4201 25.6762 29.9992 24 30C22.3231 29.9989 20.6729 30.4199 19.2015 31.2241C17.73 32.0284 16.4846 33.19 15.58 34.602C15.2443 34.0849 14.7287 33.7108 14.133 33.552L12.201 33.035C11.5607 32.8633 10.8783 32.953 10.3041 33.2844C9.72989 33.6158 9.31081 34.1617 9.13904 34.802L8.36304 37.7C8.27805 38.0171 8.25636 38.3479 8.29922 38.6734C8.34208 38.999 8.44864 39.3129 8.61282 39.5972C8.77699 39.8815 8.99557 40.1307 9.25607 40.3306C9.51657 40.5305 9.81388 40.6771 10.131 40.762L12.062 41.28C12.3868 41.3675 12.726 41.3883 13.0591 41.3412C13.3921 41.2941 13.7122 41.1801 14 41.006C14.0008 41.2712 14.107 41.5253 14.2951 41.7122C14.4832 41.8992 14.7378 42.0038 15.003 42.003C15.2683 42.0022 15.5223 41.8961 15.7093 41.708C15.8962 41.5199 16.0008 41.2652 16 41V40C16 39.619 16.027 39.244 16.078 38.877L21.282 40.272C21.5236 40.789 21.9076 41.2265 22.3891 41.5329C22.8705 41.8394 23.4293 42.0022 24 42.0022C24.5707 42.0022 25.1296 41.8394 25.611 41.5329C26.0924 41.2265 26.4765 40.789 26.718 40.272L31.922 38.877C31.973 39.244 32 39.619 32 40V41C31.9987 41.2652 32.1028 41.5201 32.2894 41.7086C32.476 41.897 32.7298 42.0037 32.995 42.005C33.2603 42.0063 33.5151 41.9022 33.7036 41.7156C33.8921 41.529 33.9987 41.2752 34 41.01C34.56 41.346 35.252 41.463 35.933 41.28L37.865 40.763C38.1822 40.6781 38.4795 40.5315 38.74 40.3316C39.0005 40.1317 39.2191 39.8825 39.3833 39.5982C39.5474 39.3139 39.654 39 39.6969 38.6744C39.7397 38.3489 39.718 38.0181 39.633 37.701L38.856 34.803C38.6843 34.1627 38.2652 33.6168 37.691 33.2854C37.1167 32.954 36.4344 32.8643 35.794 33.036L33.862 33.553C33.2677 33.7112 32.753 34.0848 32.417 34.6ZM16.603 36.947C17.1432 35.6406 18.0196 34.5004 19.1432 33.6424C20.2668 32.7844 21.5975 32.2391 23 32.062V36.171C22.5519 36.33 22.1478 36.5929 21.821 36.9384C21.4942 37.2838 21.254 37.7017 21.12 38.158L16.603 36.948V36.947ZM31.397 36.947C30.8568 35.6406 29.9803 34.5005 28.8568 33.6425C27.7332 32.7845 26.4026 32.2392 25 32.062V36.171C25.904 36.491 26.61 37.231 26.88 38.158L31.397 36.948V36.947ZM24 40C24.2653 40 24.5196 39.8946 24.7071 39.7071C24.8947 39.5196 25 39.2652 25 39C25 38.7348 24.8947 38.4804 24.7071 38.2929C24.5196 38.1054 24.2653 38 24 38C23.7348 38 23.4805 38.1054 23.2929 38.2929C23.1054 38.4804 23 38.7348 23 39C23 39.2652 23.1054 39.5196 23.2929 39.7071C23.4805 39.8946 23.7348 40 24 40Z" fill="#222222"/>
</svg>
