<svg width="48" height="48" viewBox="0 0 48 48" fill="none" xmlns="http://www.w3.org/2000/svg">
<path d="M39.8 5.99999C38.6 3.99999 36.2 3.39999 34.4 4.59999L13.8 16.4C13.2 16.2 12.6 16 12 16C8.6 16 6 18.6 6 22V40C4.8 40 4 40.8 4 42V44H20V42C20 40.8 19.2 40 18 40V23.2L38.2 11.6C40.2 10.4 40.8 7.99999 39.8 5.99999ZM12 25C10.4 25 9 23.6 9 22C9 20.4 10.4 19 12 19C13.6 19 15 20.4 15 22C15 23.6 13.6 25 12 25ZM20.8 19.2L16.2 17.2L18.8 15.6L23.4 17.6L20.8 19.2ZM27.8 15.2L23.2 13.2L25.8 11.6L30.4 13.6L27.8 15.2ZM34.6 11.2L30 9.19999L32.6 7.59999L37.2 9.59999L34.6 11.2Z" fill="#222222"/>
</svg>
